<?xml version="1.0" encoding="UTF-8"?>
<svg id="Layer_1" xmlns="http://www.w3.org/2000/svg" version="1.1" viewBox="0 0 612 792">
  <!-- Generator: Adobe Illustrator 29.3.1, SVG Export Plug-In . SVG Version: 2.1.0 Build 151)  -->
  <defs>
    <style>
      .st0 {
        fill: #c92028;
      }
    </style>
  </defs>
  <path class="st0" d="M380.53,559.43c.68,5.14,1.84,10.2,2.52,15.35,3.24,24.51,2.4,51.26-6.86,74.35-26.55,66.2-109.64,69.06-138.92,3.47-13.05-29.23-11.6-62.9-5.55-93.72l11.55,1.55c22.1.44,43.9-10.02,56.92-28.05,2.28-3.15,3.88-6.69,6.2-9.8,10.41,20.33,29.81,34.33,52.42,37.26,7.64.99,14.13.04,21.71-.42Z"/>
  <path class="st0" d="M381.08,234.18c-24.96-5.7-52.13-1.44-73.69,12.46-4.4-1.99-8.45-4.71-12.87-6.69-19.25-8.62-41.23-10.28-61.77-5.78-.77-6.01-2.27-11.95-3.02-17.96-3.66-29.53-1.54-61.46,14.09-87.29,31.14-51.45,100.23-49.03,128.62,3.76,16.57,30.82,15.44,68.02,8.63,101.5Z"/>
  <path class="st0" d="M100.83,424.54c4.07,31.39,33.75,48.97,62.62,52.38-1.71-22.97,5.1-45.51,20.52-62.52,2.93-3.24,10.92-10.93,15.17-11.16,5.09-.28,8.2,4.07,7.3,8.98-.62,3.4-7.41,7.38-10.09,10.03-19.54,19.39-20.58,46.39-19.04,72.56,1.12,18.99,9.83,37.03,24.11,49.28-29.51,26.88-71.66,48.99-112.39,37.86-26.67-7.28-47.34-28.95-52.19-56.7-7.93-45.36,26.03-82.93,63.99-100.72Z"/>
  <path class="st0" d="M449.33,476.93c28.73-3.88,57.89-21.03,62.1-52.39,27.29,13.24,53.63,36.37,61.96,66.8,11.02,40.32-11.26,80.07-51.07,90.74-40.72,10.91-81.64-11.29-111.49-37.46l9.22-9.86c16.14-19.19,16.39-45.46,14.92-69.51-1-16.41-8.92-34.16-21.06-45.11-2.34-2.11-6.44-4-7.55-6.89-2.41-6.29,3.56-11.82,9.71-9.3,3.47,1.42,11.09,8.98,13.75,12.04,14.47,16.65,20.59,38.98,19.49,60.96Z"/>
  <path class="st0" d="M107.45,370.55c-1.39,1.01-18.43-9.04-20.95-10.64-33.56-21.25-59.64-57.95-48.03-99.81,6.52-23.51,25.53-42.52,48.62-49.42,40.92-12.21,82.46,9.31,112.79,35.67-45.38,27.39-73.87,75.42-92.43,124.19Z"/>
  <path class="st0" d="M504.79,370.59c-18.88-47.82-46.73-97.49-92.41-123.45-.5-.66,1.34-2.12,1.81-2.57,18.95-18.36,54.82-35.83,81.09-37.36,34.83-2.02,67.93,17.21,78.01,51.87,14.61,50.23-25.69,93.94-68.49,111.51Z"/>
  <path class="st0" d="M286.51,453.72c11.89-1.73,27.1.98,39.34-.09,15.44,4.79,17.96,17.13,8.5,29.77-3.52,4.7-15.41,19.7-19.65,22.16-9.05,5.23-15.96,1.92-22.41-5.04-3.83-4.14-16.02-18.34-18.07-22.72-4.68-9.98,1.3-22.48,12.29-24.08Z"/>
  <path class="st0" d="M253.67,352.58c19.52-.48,21.19,28.98,3.4,31.45-23.41,3.26-24.66-30.93-3.4-31.45Z"/>
  <path class="st0" d="M351.7,352.59c20.77-2.23,23.55,29.86,2.93,31.49-20.14,1.59-23-29.34-2.93-31.49Z"/>
</svg>